<svg width="256" height="256" viewBox="0 0 256 256" fill="none" xmlns="http://www.w3.org/2000/svg">
  <defs>
    <linearGradient id="g" x1="38" y1="28" x2="214" y2="226" gradientUnits="userSpaceOnUse">
      <stop stop-color="#159276"/>
      <stop offset="1" stop-color="#49C4A4"/>
    </linearGradient>
    <filter id="s" x="14" y="14" width="228" height="228" filterUnits="userSpaceOnUse" color-interpolation-filters="sRGB">
      <feDropShadow dx="0" dy="10" stdDeviation="10" flood-color="#0E6E59" flood-opacity="0.20"/>
    </filter>
  </defs>
  <g filter="url(#s)">
    <rect x="28" y="28" width="200" height="200" rx="58" fill="url(#g)"/>
  </g>
  <path d="M86 181V76h51c31 0 51 17 51 45 0 29-20 47-53 47h-20v13H86Zm29-39h20c15 0 24-7 24-20 0-12-9-19-24-19h-20v39Z" fill="white"/>
  <path d="M72 160h18l9-19 15 30 15-55 15 31 9-17h31" stroke="white" stroke-width="8" stroke-linecap="round" stroke-linejoin="round" opacity="0.96"/>
</svg>
